<?xml version="1.0" standalone="no"?><!DOCTYPE svg PUBLIC "-//W3C//DTD SVG 1.1//EN" "http://www.w3.org/Graphics/SVG/1.1/DTD/svg11.dtd"><svg t="1631968633421" class="icon" viewBox="0 0 1024 1024" version="1.1" xmlns="http://www.w3.org/2000/svg" p-id="1603" data-spm-anchor-id="a313x.7781069.0.i4" xmlns:xlink="http://www.w3.org/1999/xlink" width="200" height="200"><defs><style type="text/css"></style></defs><path d="M221.2 901.32c-13.43 0-22.93-0.41-34.69-2.56-37.66-7-58.4-28.71-58.4-61.2-0.05-74.66 22-147.44 63.68-210.47C230.22 569 283 522.75 344.41 493.22A219.26 219.26 0 1 1 394.57 531c-125 46.72-212.22 173.56-212.22 308.63 0 2.22 0 5.56 14.13 8.23 7.19 1.37 14 1.62 24.75 1.62h295a25.94 25.94 0 1 1 0 51.87z m278.31-726.1c-90.51 0-164.16 73.64-164.16 164.16S409 503.53 499.51 503.53s164.16-73.64 164.16-164.15S590 175.22 499.51 175.22z" fill="#1E7FFE" p-id="1604"></path><path d="M627.2 163.4a217.46 217.46 0 0 0-281.09 330.12C284.27 523 231.25 569.27 192.63 627.64 151 690.51 129.06 763.1 129.11 837.56c0 32 20.45 53.34 57.58 60.22 11.69 2.14 21.14 2.54 34.51 2.54h295.07a24.94 24.94 0 1 0 0-49.87h-295c-10.83 0-17.66-0.26-24.93-1.64-15-2.82-15-6.66-15-9.21 0-135.75 87.66-263 213.3-309.73A217.43 217.43 0 0 0 627.2 163.4zM499.51 504.53c-91.07 0-165.16-74.09-165.16-165.15s74.09-165.16 165.16-165.16 165.16 74.09 165.16 165.16-74.09 165.15-165.16 165.15z" fill="#1296db" p-id="1605" data-spm-anchor-id="a313x.7781069.0.i5" class="selected"></path><path d="M545.67 597.69a26.26 26.26 0 0 0-25.89-22.57h-59.87v0.94a26 26 0 0 0-18.84 21.71L421.31 745.2a26 26 0 0 0 7.56 22.12c41.16 40.27 56.32 45.44 64.95 45.44 8.68-0.08 23.87-5.32 64.67-45.46a26.21 26.21 0 0 0 7.51-22.19z m-52 157.65c-6.84-5.38-13-10.74-18.93-16.34l15-111.68h7.31l15.4 111.78a256.523 256.523 0 0 1-18.74 16.24z" fill="#1296db" p-id="1606" data-spm-anchor-id="a313x.7781069.0.i6" class="selected"></path><path d="M870.75 847.73l-256.33-0.35a27.15 27.15 0 1 0 0 54.3l256.3 0.35a27.15 27.15 0 0 0 0-54.3zM629.74 768.17H840.2a27.15 27.15 0 0 0 0-54.3H629.74a27.15 27.15 0 0 0 0 54.3zM629.74 634.25h191.31a27.15 27.15 0 1 0 0-54.3H629.74a27.15 27.15 0 1 0 0 54.3z" fill="#F4B426" p-id="1607"></path></svg>